<?xml version="1.0" encoding="UTF-8" standalone="no"?>
<!-- Created with Inkscape (http://www.inkscape.org/) -->

<svg
   width="49.889153mm"
   height="183.09419mm"
   viewBox="0 0 49.889153 183.09419"
   version="1.1"
   id="svg5"
   xml:space="preserve"
   xmlns:inkscape="http://www.inkscape.org/namespaces/inkscape"
   xmlns:sodipodi="http://sodipodi.sourceforge.net/DTD/sodipodi-0.dtd"
   xmlns="http://www.w3.org/2000/svg"
   xmlns:svg="http://www.w3.org/2000/svg"><sodipodi:namedview
     id="namedview7"
     pagecolor="#505050"
     bordercolor="#eeeeee"
     borderopacity="1"
     inkscape:showpageshadow="0"
     inkscape:pageopacity="0"
     inkscape:pagecheckerboard="0"
     inkscape:deskcolor="#505050"
     inkscape:document-units="mm"
     showgrid="false" /><defs
     id="defs2" /><g
     inkscape:label="Layer 1"
     inkscape:groupmode="layer"
     id="layer1"
     transform="translate(-40.803818,-43.291798)"><path
       style="fill:#000000;stroke-width:0.264583"
       d="m 56.923214,226.1289 c -2.32833,-0.11909 -5.42888,-0.39143 -6.89012,-0.6052 -1.46123,-0.21376 -3.32818,-0.63986 -4.14879,-0.94689 -0.84145,-0.31483 -1.91696,-0.98556 -2.46662,-1.53829 -0.53604,-0.53904 -1.18675,-1.45631 -1.44602,-2.0384 -0.25928,-0.58208 -0.62856,-2.12989 -0.82064,-3.43958 -0.19208,-1.30969 -0.34832,-4.52437 -0.3472,-7.14375 0.001,-2.61937 0.0362,-20.71687 0.078,-40.21666 0.0647,-30.19992 0.1359,-35.84628 0.48026,-38.1 0.22235,-1.45521 0.85033,-3.89599 1.3955,-5.42396 0.54518,-1.52797 1.32251,-3.43297 1.7274,-4.23333 0.4049,-0.80036 1.80614,-3.40813 3.11387,-5.79504 1.30774,-2.38691 2.66729,-4.99467 3.02125,-5.79501 0.35394,-0.80034 0.76373,-2.06211 0.91064,-2.80392 0.1469,-0.7418 0.36643,-5.47799 0.48783,-10.524848 0.12141,-5.04686 0.30938,-9.319545 0.41773,-9.494847 0.14225,-0.230169 0.31512,-0.173305 0.62215,0.204647 0.23384,0.287859 1.19907,0.771234 2.14495,1.074168 0.94589,0.302938 3.65666,1.106412 6.02394,1.785512 4.30415,1.23471 4.30415,1.23471 8.86354,0.0221 2.50767,-0.66696 5.37442,-1.446483 6.37056,-1.732268 0.99614,-0.285787 1.97152,-0.6527 2.16752,-0.815361 0.19599,-0.162663 0.40371,-0.673835 0.4616,-1.135941 0.06,-0.479253 0.12343,-0.172712 0.14758,0.713558 0.0348,1.27844 -0.021,1.501148 -0.31536,1.256882 -0.26364,-0.218797 -0.58018,-0.219319 -1.20363,-0.0019 -0.46526,0.162189 -1.88187,0.574937 -3.14802,0.917215 -1.26616,0.342285 -3.82393,1.010405 -5.68395,1.484715 -3.38185,0.8624 -3.38185,0.8624 -5.82084,0.24505 -1.34144,-0.33967 -3.62961,-0.96187 -5.08481,-1.3828 -1.45521,-0.420924 -3.12209,-0.934756 -3.70417,-1.141848 -0.615,-0.218805 -1.15931,-0.278608 -1.29939,-0.142766 -0.13259,0.128572 -0.27221,0.525931 -0.31028,0.883018 -0.0381,0.357086 0.12993,0.822726 0.37335,1.034746 0.24341,0.21203 1.41777,0.71961 2.60967,1.12797 1.19191,0.40836 2.14441,0.87009 2.11667,1.02607 -0.0277,0.15598 0.21745,0.27414 0.54488,0.26259 0.32742,-0.0116 0.59531,0.0737 0.59531,0.18946 0,0.11575 -0.19433,0.61798 -0.43184,1.11605 -0.30738,0.64457 -0.37653,1.20004 -0.23991,1.9272 0.10556,0.5619 0.22539,1.85506 0.26628,2.87371 0.0409,1.018648 0.16485,2.255948 0.27546,2.749558 0.13492,0.60212 0.11022,0.84132 -0.075,0.72682 -0.15417,-0.0953 -0.52048,0.33406 -0.8293,0.97199 -0.30423,0.62846 -0.55315,1.30405 -0.55315,1.50131 0,0.19726 -0.19705,0.57639 -0.43788,0.84251 -0.40817,0.45102 -0.40539,0.51976 0.041,1.01302 0.26339,0.29104 0.63903,0.52917 0.83475,0.52917 0.19573,0 0.35587,0.12609 0.35587,0.28019 0,0.15411 0.1243,0.20338 0.27622,0.10949 0.15192,-0.0939 0.53887,-2.4e-4 0.8599,0.2081 0.32102,0.20836 0.94086,0.45895 1.37742,0.55687 0.43657,0.0979 1.15094,0.24071 1.58751,0.31729 0.43656,0.0766 1.12117,0.26742 1.52135,0.42408 0.40019,0.15666 0.72761,0.39715 0.72761,0.53441 0,0.13726 -0.38036,0.5693 -0.84524,0.96008 -0.46488,0.39079 -1.00225,0.67518 -1.19416,0.63197 -0.19191,-0.0432 -0.41961,0.10562 -0.50599,0.33073 -0.0864,0.22511 -0.30804,0.40929 -0.49256,0.40929 -0.18452,0 -0.42104,0.38695 -0.5256,0.85989 -0.10455,0.47294 -0.24842,0.71107 -0.3197,0.52917 -0.0713,-0.1819 -0.2255,-0.33073 -0.34269,-0.33073 -0.1172,0 -0.28858,0.40237 -0.38084,0.89417 -0.13662,0.72823 -0.31572,0.92376 -0.9651,1.05364 -0.51054,0.10211 -0.96045,0.44522 -1.25076,0.95387 -0.24938,0.43692 -0.78161,0.90936 -1.18275,1.04987 -0.40114,0.1405 -1.43423,0.97361 -2.29576,1.85134 -0.86153,0.87773 -1.6345,1.81039 -1.71771,2.07258 -0.0832,0.26219 -0.50513,0.68571 -0.93759,0.94117 -0.46372,0.27393 -1.01187,0.97445 -1.33618,1.7076 -0.30244,0.68372 -0.77389,1.48273 -1.04767,1.77559 -0.27378,0.29285 -0.86319,1.30637 -1.30979,2.25225 -0.4466,0.94589 -0.81209,2.0234 -0.81221,2.39448 -1.1e-4,0.37108 -0.10282,0.7878 -0.22823,0.92604 -0.12542,0.13825 -0.35759,0.78379 -0.51594,1.43455 -0.15835,0.65075 -0.18979,1.24606 -0.0699,1.32291 0.11993,0.0768 0.12578,0.37786 0.013,0.66889 -0.11277,0.29104 -0.45497,0.79208 -0.76044,1.11341 -0.30547,0.32135 -0.55541,0.69277 -0.55541,0.82542 0,0.13263 -0.68461,1.59613 -1.52135,3.25221 -1.52136,3.01105 -1.52136,3.01105 -1.49599,26.82354 0.0254,23.8125 0.0254,23.8125 0.69834,25.66458 0.37013,1.01866 1.02628,2.62599 1.45812,3.57188 0.43185,0.94588 1.34979,2.67229 2.03988,3.83646 1.2547,2.11666 1.2547,2.11666 1.30488,8.92672 0.0363,4.92064 0.1391,6.89897 0.37065,7.13052 0.17626,0.17625 0.32047,0.67593 0.32047,1.11039 0,0.44648 -0.2497,1.05572 -0.57431,1.40125 -0.31587,0.33623 -0.49447,0.69115 -0.3969,0.78872 0.0976,0.0976 2.80511,0.15621 6.01675,0.13031 3.21165,-0.0259 6.33705,-0.15295 6.94534,-0.28235 0.6083,-0.12939 5.21365,-0.18448 10.23412,-0.12242 5.02047,0.0621 9.30672,0.12851 9.525,0.14767 0.21828,0.0192 0.8632,0.0161 1.43316,-0.007 0.56996,-0.0229 0.95665,-0.12132 0.85932,-0.21865 -0.0973,-0.0973 -0.002,-0.37081 0.21287,-0.60773 0.21441,-0.23692 0.67799,-0.9727 1.03017,-1.63506 0.58635,-1.10277 0.62356,-1.3805 0.44149,-3.29487 -0.15047,-1.58213 -0.20783,-1.78492 -0.23584,-0.83381 -0.0257,0.87166 -0.14842,1.25677 -0.40059,1.25677 -0.25934,0 -0.35417,-0.34093 -0.33073,-1.18901 0.0181,-0.65395 0.11377,-1.18973 0.21267,-1.19062 0.0989,-8e-4 0.17356,-1.34107 0.16592,-2.97818 -0.008,-1.63711 -0.12591,-3.43415 -0.2628,-3.99341 -0.19951,-0.81507 -0.16779,-1.07759 0.15987,-1.32292 0.22483,-0.16834 0.44502,-0.55385 0.48931,-0.85671 0.0443,-0.30285 0.60566,-1.43394 1.24746,-2.51354 0.64181,-1.07959 1.85794,-3.36056 2.70253,-5.06882 0.84458,-1.70825 1.53561,-3.28583 1.53561,-3.50573 0,-0.21989 0.14883,-0.37004 0.33073,-0.33366 0.26191,0.0524 0.34224,-4.17307 0.38605,-20.30677 0.0304,-11.20511 0.0744,-23.88526 0.0977,-28.17813 0.0333,-6.12474 -0.0506,-8.37485 -0.38974,-10.45104 -0.2377,-1.45521 -0.65098,-3.24114 -0.91841,-3.96875 -0.26743,-0.7276 -0.68457,-1.79916 -0.92697,-2.38124 -0.24241,-0.58208 -0.6406,-1.47505 -0.88488,-1.98437 -0.24428,-0.50933 -0.79803,-1.49159 -1.23056,-2.18282 -0.43253,-0.69122 -0.88644,-1.25677 -1.00868,-1.25677 -0.12225,0 -0.1171,0.20836 0.0114,0.46302 0.12853,0.25467 0.48166,0.97081 0.78474,1.59143 0.30307,0.62061 0.62888,1.54335 0.72403,2.05052 0.0951,0.50716 0.2788,0.92212 0.40812,0.92212 0.12933,0 0.23514,0.24186 0.23514,0.53747 0,0.2956 0.17047,0.60288 0.37882,0.68283 0.20835,0.0799 0.38489,0.3441 0.39231,0.587 0.007,0.24291 0.0843,0.97743 0.17087,1.63227 0.0866,0.65485 0.21344,1.84547 0.28192,2.64583 0.0685,0.80037 0.26717,1.7403 0.4415,2.08874 0.17434,0.34844 0.31743,1.18187 0.31797,1.85208 5.3e-4,0.67021 -0.088,1.63528 -0.19678,2.1446 -0.12744,0.59674 -0.11516,0.73787 0.0345,0.39688 0.20283,-0.46209 0.25527,-0.4115 0.41366,0.39913 0.0998,0.51057 0.11086,1.51582 0.0247,2.23388 -0.0862,0.71807 -0.21312,1.36197 -0.28205,1.4309 -0.0689,0.0689 -0.12531,-0.067 -0.12531,-0.30201 0,-0.23504 -0.26789,-0.71959 -0.59531,-1.07677 -0.32742,-0.35719 -0.8323,-1.10747 -1.12195,-1.66728 -0.28965,-0.55982 -0.63105,-1.09304 -0.75866,-1.18495 -0.12762,-0.0919 -0.24783,-0.74675 -0.26712,-1.45521 -0.0235,-0.86252 -0.16621,-1.34752 -0.43196,-1.46794 -0.27293,-0.12368 -0.19031,-0.18606 0.26458,-0.19975 0.66146,-0.0199 0.66146,-0.0199 -0.13229,-0.67054 -0.43656,-0.35785 -0.63004,-0.65492 -0.42995,-0.66015 0.27518,-0.007 0.3142,-0.219 0.16018,-0.86941 -0.112,-0.47294 -0.23678,-1.21708 -0.2773,-1.65365 -0.0405,-0.43656 -0.0828,-1.00584 -0.094,-1.26507 -0.0112,-0.25923 -0.22873,-0.54951 -0.48339,-0.64506 -0.25466,-0.0956 -0.60806,-0.35971 -0.78533,-0.58701 -0.17727,-0.2273 -0.3261,-0.66662 -0.33073,-0.97627 -0.005,-0.30965 -0.18861,-0.99426 -0.40884,-1.52135 -0.22024,-0.52709 -0.50987,-0.95835 -0.64363,-0.95835 -0.13376,0 -0.3106,-0.21237 -0.39298,-0.47192 -0.0824,-0.25956 -0.50713,-0.68301 -0.94388,-0.941 -0.43674,-0.258 -0.79409,-0.68136 -0.79409,-0.94082 0,-0.25946 -0.30291,-0.60975 -0.67313,-0.77844 -0.37023,-0.16869 -0.63812,-0.45962 -0.59532,-0.64651 0.0428,-0.1869 -0.38194,-0.79962 -0.94388,-1.36161 -0.56194,-0.56199 -1.18861,-1.42126 -1.39261,-1.9095 -0.204,-0.48824 -0.47029,-0.8877 -0.59176,-0.8877 -0.12146,0 -0.43591,-0.47694 -0.69877,-1.05986 -0.26286,-0.58292 -0.63813,-1.19281 -0.83394,-1.35531 -0.1958,-0.1625 -0.356,-0.68123 -0.356,-1.15272 0,-0.55417 -0.28064,-1.2104 -0.79375,-1.85607 -0.43656,-0.54934 -0.79375,-1.10149 -0.79375,-1.227 0,-0.12552 -0.1786,-0.22821 -0.39688,-0.22821 -0.21828,0 -0.39687,-0.11906 -0.39687,-0.26458 0,-0.14552 0.16471,-0.26458 0.36601,-0.26458 0.20131,0 0.45498,-0.2679 0.56371,-0.59532 0.10873,-0.32742 0.22561,-0.80744 0.25972,-1.0667 0.0341,-0.25927 0.15393,-0.55693 0.26627,-0.66146 0.11233,-0.10454 0.25739,-0.0412 0.32235,0.14066 0.065,0.1819 0.22726,0.33073 0.36065,0.33073 0.1334,0 0.24254,-0.35719 0.24254,-0.79375 0,-0.52916 -0.13229,-0.79375 -0.39688,-0.79375 -0.21828,0 -0.39687,-0.12643 -0.39687,-0.28097 0,-0.15453 -0.28428,-0.89867 -0.63172,-1.65364 -0.51412,-1.11715 -0.66182,-1.98275 -0.79345,-4.649898 -0.16039,-3.24983 -0.15622,-3.28235 0.49942,-3.88997 0.49333,-0.45721 0.66116,-0.88202 0.66116,-1.67352 0,-1.01093 0.049,-1.07395 1.04214,-1.34138 0.57317,-0.15435 1.78685,-0.51853 2.69706,-0.80931 0.91021,-0.29078 1.86438,-0.71823 2.12037,-0.9499 0.4307,-0.38978 0.47598,-0.37456 0.60661,0.20379 0.0776,0.34376 0.17453,4.13735 0.21532,8.43022 0.069,7.256918 0.11444,7.912588 0.6476,9.333798 0.31539,0.84072 1.14686,2.55939 1.84769,3.81926 0.70084,1.25987 1.7857,3.19138 2.41079,4.29225 0.6251,1.10086 1.76977,3.31125 2.54371,4.91198 0.77394,1.60073 1.65579,3.68432 1.95966,4.6302 0.30388,0.94588 0.72586,2.43417 0.93775,3.30729 0.21189,0.87313 0.45589,2.36141 0.54222,3.30729 0.0863,0.94589 0.17086,20.05542 0.18783,42.46563 0.0223,29.40078 -0.0525,41.15101 -0.26856,42.20104 -0.16468,0.80036 -0.43494,1.87192 -0.60057,2.38125 -0.16563,0.50932 -0.6105,1.34276 -0.98861,1.85208 -0.37811,0.50932 -0.86606,1.06796 -1.08434,1.24141 -0.21828,0.17345 -1.04503,0.6349 -1.83722,1.02545 -0.92884,0.45792 -2.33827,0.83499 -3.96875,1.06178 -1.39062,0.19342 -4.49293,0.47555 -6.89403,0.62695 -2.40109,0.15141 -6.50875,0.25814 -9.12812,0.23719 -2.61938,-0.021 -6.66751,-0.13554 -8.99584,-0.25463 z m -5.47226,-28.26491 c -2.56184,-0.1472 -2.56184,-0.1472 -3.37343,-1.26939 -0.44638,-0.6172 -0.8116,-1.24228 -0.8116,-1.38906 0,-0.14678 -0.0917,-0.26687 -0.20375,-0.26687 -0.11207,0 -0.87685,-1.22039 -1.69951,-2.71198 -1.49575,-2.71198 -1.49575,-2.71198 -1.58076,-24.27552 -0.085,-21.56354 -0.085,-21.56354 0.83044,-23.15104 0.50349,-0.87313 1.50376,-2.48047 2.22282,-3.57188 0.71905,-1.0914 1.43429,-2.06731 1.58942,-2.16868 0.15513,-0.10137 6.17891,-0.1879 13.38618,-0.1923 7.20726,-0.004 14.65193,-0.0855 16.5437,-0.18017 3.43959,-0.17218 3.43959,-0.17218 5.17902,2.17667 0.95668,1.29187 2.16939,3.06323 2.6949,3.93636 0.95547,1.5875 0.95547,1.5875 1.02933,22.88645 0.0739,21.29896 0.0739,21.29896 -0.93376,23.20202 -0.5542,1.04668 -1.68108,2.88586 -2.50418,4.08706 -1.11209,1.62293 -1.69602,2.23605 -2.27296,2.38659 -0.42702,0.11142 -3.58218,0.32569 -7.01146,0.47615 -3.42928,0.15046 -9.44974,0.25088 -13.37881,0.22317 -3.92906,-0.0277 -8.29657,-0.11662 -9.70559,-0.19758 z m 27.02208,-0.81388 c 1.81146,-0.15487 3.45335,-0.41419 3.64864,-0.57626 0.19529,-0.16208 0.99324,-1.25841 1.77322,-2.43629 0.77998,-1.17788 1.80254,-2.85598 2.27235,-3.7291 0.85421,-1.5875 0.85421,-1.5875 0.73225,-22.62188 -0.11291,-19.47428 -0.15673,-21.10112 -0.59071,-21.93435 -0.25781,-0.495 -1.30851,-2.07353 -2.33488,-3.50785 -1.02638,-1.43431 -2.00751,-2.72518 -2.1803,-2.86858 -0.20637,-0.17127 -3.43723,-0.1686 -9.41727,0.008 -5.00671,0.14768 -12.37734,0.2508 -16.37916,0.22916 -7.27604,-0.0393 -7.27604,-0.0393 -8.11847,1.05034 -0.46334,0.59932 -1.51377,2.17498 -2.3343,3.50146 -1.49187,2.41178 -1.49187,2.41178 -1.40653,23.75748 0.0853,21.3457 0.0853,21.3457 1.5236,23.85044 0.79104,1.37761 1.8843,3.11383 2.42948,3.85827 0.54518,0.74443 1.21798,1.41281 1.49512,1.48529 0.27714,0.0725 1.6818,0.15553 3.12145,0.18456 1.43966,0.029 2.67948,0.12023 2.75517,0.20265 0.0757,0.0824 4.54292,0.0775 9.92719,-0.0108 5.38427,-0.0884 11.27169,-0.28741 13.08315,-0.44228 z M 52.738554,87.332011 c -0.0751,-0.121574 0.0202,-1.826133 0.21183,-3.787915 0.19164,-1.961782 0.48899,-5.11469 0.66078,-7.00646 0.17178,-1.891771 0.36294,-4.034896 0.42479,-4.7625 0.0619,-0.727604 0.23449,-2.692136 0.38366,-4.365625 0.14916,-1.67349 0.4501,-4.947708 0.66874,-7.276042 0.21864,-2.328333 0.52156,-4.958933 0.67316,-5.845778 0.26068,-1.525001 0.23868,-1.666901 -0.40581,-2.616609 -0.3748,-0.55229 -0.69516,-1.25544 -0.71191,-1.562555 -0.0168,-0.307115 -0.007,-0.796516 0.0219,-1.087557 0.0288,-0.291042 0.35502,-1.414675 0.725,-2.496962 0.36997,-1.082288 0.67268,-2.243147 0.67268,-2.579688 0,-0.33654 0.0744,-0.617821 0.16536,-0.625068 0.0909,-0.0072 0.87974,-0.01844 1.75287,-0.02487 0.87312,-0.0064 2.00801,-5.03e-4 2.52197,0.01318 0.81494,0.02169 0.94198,0.115406 0.99306,0.732596 0.0322,0.38925 0.23914,0.907249 0.45983,1.15111 0.2207,0.24386 1.1703,0.818352 2.11024,1.276648 0.93994,0.458295 2.09844,0.836105 2.57444,0.839577 0.476,0.0035 1.31761,0.111273 1.87024,0.239559 0.74798,0.173635 1.25618,0.125879 1.98848,-0.186854 0.81138,-0.346512 1.08503,-0.676085 1.56217,-1.881447 0.42574,-1.075533 0.50266,-1.552684 0.29134,-1.807304 -0.23012,-0.277288 -0.0306,-0.34129 1.00493,-0.322442 0.71063,0.01293 1.61947,0.08349 2.01966,0.156785 0.40018,0.0733 0.7276,0.300604 0.7276,0.505124 0,0.20452 0.29766,1.399004 0.66146,2.654408 0.3638,1.255405 0.66146,2.717847 0.66146,3.249871 0,0.601026 -0.25562,1.343488 -0.67504,1.960728 -0.67504,0.993411 -0.67504,0.993411 -0.26477,5.419231 0.22565,2.434201 0.64848,7.268871 0.93962,10.743713 0.29114,3.474841 0.52935,6.674341 0.52935,7.110002 0,0.679008 -0.0575,0.744413 -0.40249,0.458068 -0.31586,-0.262144 -2.75031,-0.304144 -11.31094,-0.195144 -6.92404,0.08816 -11.17421,0.244269 -11.63605,0.427384 -0.44915,0.178086 -0.72761,0.487535 -0.72761,0.808591 0,0.286057 0.0911,0.576408 0.20246,0.645226 0.11135,0.06882 5.49889,0.158612 11.97232,0.199543 11.76985,0.07442 11.76985,0.07442 11.92083,-0.704823 0.12959,-0.668846 0.16757,-0.598551 0.26806,0.496189 0.0644,0.701484 0.0678,1.324713 0.008,1.38495 -0.0602,0.06024 -0.24665,-0.07801 -0.41424,-0.30721 -0.26858,-0.367302 -1.69304,-0.4215 -12.00944,-0.456917 -9.43321,-0.03238 -11.74655,0.02748 -11.92022,0.308499 -0.11853,0.191775 -0.29974,1.441035 -0.40271,2.776133 -0.10296,1.335095 -0.25213,3.320417 -0.33148,4.411823 -0.0794,1.091407 -0.17898,2.022063 -0.22138,2.068124 -0.0424,0.04606 -0.13857,-0.01572 -0.21371,-0.13729 z m 20.82611,-12.39421 c 0.95685,-0.179507 0.95685,-0.179507 0.14614,-0.887328 -0.6445,-0.562711 -0.86306,-1.031229 -1.06611,-2.285331 -0.14048,-0.867629 -0.36822,-2.787438 -0.5061,-4.266244 -0.13787,-1.478807 -0.3165,-3.08615 -0.39695,-3.571875 -0.0804,-0.485725 -0.34165,-1.537981 -0.58045,-2.338345 -0.2388,-0.800365 -0.55825,-1.616049 -0.7099,-1.812629 -0.15164,-0.196583 -0.30245,-0.539565 -0.33512,-0.762185 -0.0327,-0.22262 -0.17824,-0.523597 -0.32348,-0.668837 -0.14524,-0.145239 -1.2749,-0.298583 -2.51036,-0.340763 -1.83905,-0.06279 -2.31221,0.0033 -2.60992,0.364799 -0.20001,0.24282 -0.50064,0.858209 -0.66807,1.367531 -0.16743,0.509323 -0.37706,2.23573 -0.46584,3.836459 -0.0888,1.600729 -0.29181,3.743854 -0.45119,4.7625 -0.15938,1.018645 -0.3415,1.703255 -0.40472,1.521354 -0.0632,-0.181901 -0.26872,-0.33073 -0.45668,-0.33073 -0.18797,0 -0.43164,0.386954 -0.54149,0.859896 -0.10985,0.472943 -0.17633,1.070899 -0.14774,1.328793 0.0295,0.265938 -0.0988,0.437722 -0.29636,0.396875 -0.21905,-0.04529 -0.37904,0.245888 -0.43101,0.784432 -0.0492,0.509415 -0.31424,1.018667 -0.65418,1.25677 -0.31435,0.220176 -0.81293,0.408686 -1.10798,0.418915 -0.53139,0.01841 -0.53147,0.02053 -0.009,0.224433 0.28999,0.11321 3.46184,0.231751 7.04855,0.263427 3.58671,0.03167 6.95187,-0.02318 7.47814,-0.121917 z"
       id="path318" /></g></svg>
